<?xml version="1.0" encoding="UTF-8"?>
<svg id="Layer_1" data-name="Layer 1" xmlns="http://www.w3.org/2000/svg" viewBox="0 0 524.53 206.12">
  <path d="M213.91,76.21c0-34.93-16.45-45.32-35.8-45.32-21.94,0-37.82,12.7-37.82,45.32v111.72c0,9.82-6.35,15.59-17.03,15.59-9.82,0-16.46-5.77-16.46-15.59v-111.72c0-32.62-16.17-45.32-37.82-45.32s-35.8,11.84-35.8,45.32v111.72c0,9.82-6.06,15.59-16.46,15.59S0,197.75,0,187.93v-111.72C0,16.45,28.87,0,69,0c23.96,0,43.01,8.95,54.56,33.78C135.1,8.08,154.44,0,178.41,0c40.13,0,68.71,17.9,68.71,76.21v111.72c0,9.82-6.06,15.59-16.74,15.59s-16.46-5.77-16.46-15.59v-111.72Z" style="fill: #00539b;"/>
  <path d="M491.33,17.03c0-9.82,8.66-15.59,16.46-15.59s16.74,5.77,16.74,15.59v108.54c0,62.64-29.16,80.54-69,80.54-23.96,0-43.01-8.95-54.56-34.64-11.84,25.4-30.31,34.64-55.43,34.64-39.26,0-68.42-17.61-68.42-80.54V17.03c0-9.82,8.95-15.59,17.03-15.59s16.46,5.77,16.46,15.59v108.54c0,37.53,15.01,49.65,36.66,49.65,20.5,0,36.95-13.57,36.95-49.65V17.03c0-9.82,8.66-15.59,16.46-15.59s16.74,5.77,16.74,15.59v108.54c0,36.08,16.74,49.65,36.95,49.65s36.95-10.39,36.95-49.65V17.03Z" style="fill: #d82028;"/>
</svg>